<svg width="212" height="40" viewBox="0 0 212 40" fill="none" xmlns="http://www.w3.org/2000/svg">
    <g clip-path="url(#clip0_360_128107)">
        <rect width="40" height="13.3333" fill="white"/>
        <rect y="13.3335" width="40" height="13.3333" fill="#1C3578"/>
        <rect y="26.6665" width="40" height="13.3333" fill="#E4181C"/>
    </g>
    <rect x="0.5" y="0.5" width="39" height="39" rx="11.5" stroke="#F6F6F6"/>
    <path d="M59.4063 4.5H58.4375C58.3802 4.22135 58.2799 3.97656 58.1367 3.76562C57.9961 3.55469 57.8242 3.3776 57.6211 3.23438C57.4206 3.08854 57.1979 2.97917 56.9531 2.90625C56.7083 2.83333 56.4531 2.79687 56.1875 2.79687C55.7031 2.79687 55.2643 2.91927 54.8711 3.16406C54.4805 3.40885 54.1693 3.76953 53.9375 4.24609C53.7083 4.72266 53.5938 5.30729 53.5938 6C53.5938 6.69271 53.7083 7.27734 53.9375 7.75391C54.1693 8.23047 54.4805 8.59115 54.8711 8.83594C55.2643 9.08073 55.7031 9.20312 56.1875 9.20312C56.4531 9.20312 56.7083 9.16667 56.9531 9.09375C57.1979 9.02083 57.4206 8.91276 57.6211 8.76953C57.8242 8.6237 57.9961 8.44531 58.1367 8.23437C58.2799 8.02083 58.3802 7.77604 58.4375 7.5H59.4063C59.3333 7.90885 59.2005 8.27474 59.0078 8.59766C58.8151 8.92057 58.5755 9.19531 58.2891 9.42187C58.0026 9.64583 57.681 9.81641 57.3242 9.93359C56.9701 10.0508 56.5911 10.1094 56.1875 10.1094C55.5052 10.1094 54.8984 9.94271 54.3672 9.60938C53.8359 9.27604 53.418 8.80208 53.1133 8.1875C52.8086 7.57292 52.6563 6.84375 52.6563 6C52.6563 5.15625 52.8086 4.42708 53.1133 3.8125C53.418 3.19792 53.8359 2.72396 54.3672 2.39062C54.8984 2.05729 55.5052 1.89062 56.1875 1.89062C56.5911 1.89062 56.9701 1.94922 57.3242 2.06641C57.681 2.18359 58.0026 2.35547 58.2891 2.58203C58.5755 2.80599 58.8151 3.07943 59.0078 3.40234C59.2005 3.72266 59.3333 4.08854 59.4063 4.5ZM62.6123 10.1406C62.2321 10.1406 61.887 10.069 61.5771 9.92578C61.2673 9.77995 61.0212 9.57031 60.8389 9.29688C60.6566 9.02083 60.5654 8.6875 60.5654 8.29687C60.5654 7.95312 60.6331 7.67448 60.7686 7.46094C60.904 7.24479 61.085 7.07552 61.3115 6.95312C61.5381 6.83073 61.7881 6.73958 62.0615 6.67969C62.3376 6.61719 62.6149 6.56771 62.8936 6.53125C63.2581 6.48437 63.5537 6.44922 63.7803 6.42578C64.0094 6.39974 64.1761 6.35677 64.2803 6.29687C64.387 6.23698 64.4404 6.13281 64.4404 5.98437V5.95312C64.4404 5.56771 64.335 5.26823 64.124 5.05469C63.9157 4.84115 63.5993 4.73437 63.1748 4.73437C62.7347 4.73437 62.3896 4.83073 62.1396 5.02344C61.8896 5.21615 61.7139 5.42187 61.6123 5.64062L60.7373 5.32812C60.8936 4.96354 61.1019 4.67969 61.3623 4.47656C61.6253 4.27083 61.9118 4.1276 62.2217 4.04687C62.5342 3.96354 62.8415 3.92188 63.1436 3.92188C63.3363 3.92188 63.5576 3.94531 63.8076 3.99219C64.0602 4.03646 64.3037 4.12891 64.5381 4.26953C64.7751 4.41016 64.9717 4.6224 65.1279 4.90625C65.2842 5.1901 65.3623 5.57031 65.3623 6.04688V10H64.4404V9.1875H64.3936C64.3311 9.31771 64.2269 9.45703 64.0811 9.60547C63.9352 9.75391 63.7412 9.88021 63.499 9.98437C63.2568 10.0885 62.9613 10.1406 62.6123 10.1406ZM62.7529 9.3125C63.1175 9.3125 63.4248 9.24089 63.6748 9.09766C63.9274 8.95443 64.1175 8.76953 64.2451 8.54297C64.3753 8.31641 64.4404 8.07812 64.4404 7.82812V6.98437C64.4014 7.03125 64.3154 7.07422 64.1826 7.11328C64.0524 7.14974 63.9014 7.18229 63.7295 7.21094C63.5602 7.23698 63.3949 7.26042 63.2334 7.28125C63.0745 7.29948 62.9456 7.3151 62.8467 7.32812C62.6071 7.35937 62.3831 7.41016 62.1748 7.48047C61.9691 7.54818 61.8024 7.65104 61.6748 7.78906C61.5498 7.92448 61.4873 8.10937 61.4873 8.34375C61.4873 8.66406 61.6058 8.90625 61.8428 9.07031C62.0824 9.23177 62.3857 9.3125 62.7529 9.3125ZM67.9668 8.64062L70.8574 4H71.9199V10H70.998V5.35938L68.123 10H67.0449V4H67.9668V8.64062ZM70.248 2H71.1074C71.1074 2.42187 70.9616 2.76693 70.6699 3.03516C70.3783 3.30339 69.9824 3.4375 69.4824 3.4375C68.9902 3.4375 68.5983 3.30339 68.3066 3.03516C68.0176 2.76693 67.873 2.42187 67.873 2H68.7324C68.7324 2.20312 68.7884 2.38151 68.9004 2.53516C69.015 2.6888 69.209 2.76562 69.4824 2.76562C69.7559 2.76562 69.9512 2.6888 70.0684 2.53516C70.1882 2.38151 70.248 2.20312 70.248 2ZM72.792 4.85937V4H77.667V4.85937H75.6982V10H74.7764V4.85937H72.792ZM84.543 10.125C83.9805 10.125 83.4961 9.99219 83.0898 9.72656C82.6836 9.46094 82.3711 9.09505 82.1523 8.62891C81.9336 8.16276 81.8242 7.63021 81.8242 7.03125C81.8242 6.42187 81.9362 5.88411 82.1602 5.41797C82.3867 4.94922 82.7018 4.58333 83.1055 4.32031C83.5117 4.05469 83.9857 3.92188 84.5273 3.92188C84.9492 3.92188 85.3294 4 85.668 4.15625C86.0065 4.3125 86.2839 4.53125 86.5 4.8125C86.7161 5.09375 86.8503 5.42187 86.9023 5.79687H85.9805C85.9102 5.52344 85.7539 5.28125 85.5117 5.07031C85.2721 4.85677 84.9492 4.75 84.543 4.75C84.1836 4.75 83.8685 4.84375 83.5977 5.03125C83.3294 5.21615 83.1198 5.47786 82.9687 5.81641C82.8203 6.15234 82.7461 6.54687 82.7461 7C82.7461 7.46354 82.819 7.86719 82.9648 8.21094C83.1133 8.55469 83.3216 8.82161 83.5898 9.01172C83.8607 9.20182 84.1784 9.29688 84.543 9.29688C84.7826 9.29688 85 9.25521 85.1953 9.17187C85.3906 9.08854 85.556 8.96875 85.6914 8.8125C85.8268 8.65625 85.9232 8.46875 85.9805 8.25H86.9023C86.8503 8.60417 86.7214 8.92318 86.5156 9.20703C86.3125 9.48828 86.043 9.71224 85.707 9.87891C85.3737 10.043 84.9857 10.125 84.543 10.125ZM87.6094 11.7188V9.14062H88.1094C88.2318 9.01302 88.3372 8.875 88.4258 8.72656C88.5143 8.57812 88.5911 8.40234 88.6563 8.19922C88.724 7.99349 88.7813 7.74349 88.8281 7.44922C88.875 7.15234 88.9167 6.79427 88.9531 6.375L89.1562 4H92.9687V9.14062H93.8906V11.7188H92.9687V10H88.5313V11.7188H87.6094ZM89.1562 9.14062H92.0469V4.85937H90.0156L89.8594 6.375C89.7943 7.0026 89.7135 7.55078 89.6172 8.01953C89.5208 8.48828 89.3672 8.86198 89.1562 9.14062ZM97.6299 10.125C97.0518 10.125 96.5531 9.9974 96.1338 9.74219C95.7171 9.48438 95.3955 9.125 95.1689 8.66406C94.945 8.20052 94.833 7.66146 94.833 7.04688C94.833 6.43229 94.945 5.89062 95.1689 5.42187C95.3955 4.95052 95.7106 4.58333 96.1143 4.32031C96.5205 4.05469 96.9945 3.92188 97.5361 3.92188C97.8486 3.92188 98.1572 3.97396 98.4619 4.07812C98.7666 4.18229 99.0439 4.35156 99.2939 4.58594C99.5439 4.81771 99.7432 5.125 99.8916 5.50781C100.04 5.89062 100.114 6.36198 100.114 6.92187V7.3125H95.4893V6.51562H99.1768C99.1768 6.17708 99.109 5.875 98.9736 5.60937C98.8408 5.34375 98.6507 5.13411 98.4033 4.98047C98.1585 4.82682 97.8695 4.75 97.5361 4.75C97.1689 4.75 96.8512 4.84115 96.583 5.02344C96.3174 5.20312 96.113 5.4375 95.9697 5.72656C95.8265 6.01562 95.7549 6.32552 95.7549 6.65625V7.1875C95.7549 7.64063 95.833 8.02474 95.9893 8.33984C96.1481 8.65234 96.3682 8.89062 96.6494 9.05469C96.9307 9.21615 97.2575 9.29688 97.6299 9.29688C97.8721 9.29688 98.0908 9.26302 98.2861 9.19531C98.484 9.125 98.6546 9.02083 98.7979 8.88281C98.9411 8.74219 99.0518 8.56771 99.1299 8.35937L100.021 8.60938C99.9268 8.91146 99.7692 9.17708 99.5479 9.40625C99.3265 9.63281 99.0531 9.8099 98.7275 9.9375C98.402 10.0625 98.0361 10.125 97.6299 10.125ZM100.985 10V9.14062H101.204C101.384 9.14062 101.534 9.10547 101.653 9.03516C101.773 8.96224 101.869 8.83594 101.942 8.65625C102.018 8.47396 102.075 8.22135 102.114 7.89844C102.156 7.57292 102.186 7.15885 102.204 6.65625L102.313 4H106.313V10H105.392V4.85937H103.188L103.095 7C103.074 7.49219 103.03 7.92578 102.962 8.30078C102.897 8.67318 102.797 8.98568 102.661 9.23828C102.528 9.49089 102.351 9.68099 102.13 9.80859C101.909 9.9362 101.631 10 101.298 10H100.985ZM109.771 10.1406C109.39 10.1406 109.045 10.069 108.735 9.92578C108.425 9.77995 108.179 9.57031 107.997 9.29688C107.815 9.02083 107.724 8.6875 107.724 8.29687C107.724 7.95312 107.791 7.67448 107.927 7.46094C108.062 7.24479 108.243 7.07552 108.47 6.95312C108.696 6.83073 108.946 6.73958 109.22 6.67969C109.496 6.61719 109.773 6.56771 110.052 6.53125C110.416 6.48437 110.712 6.44922 110.938 6.42578C111.168 6.39974 111.334 6.35677 111.438 6.29687C111.545 6.23698 111.599 6.13281 111.599 5.98437V5.95312C111.599 5.56771 111.493 5.26823 111.282 5.05469C111.074 4.84115 110.757 4.73437 110.333 4.73437C109.893 4.73437 109.548 4.83073 109.298 5.02344C109.048 5.21615 108.872 5.42187 108.771 5.64062L107.896 5.32812C108.052 4.96354 108.26 4.67969 108.521 4.47656C108.784 4.27083 109.07 4.1276 109.38 4.04687C109.692 3.96354 110 3.92188 110.302 3.92188C110.494 3.92188 110.716 3.94531 110.966 3.99219C111.218 4.03646 111.462 4.12891 111.696 4.26953C111.933 4.41016 112.13 4.6224 112.286 4.90625C112.442 5.1901 112.521 5.57031 112.521 6.04688V10H111.599V9.1875H111.552C111.489 9.31771 111.385 9.45703 111.239 9.60547C111.093 9.75391 110.899 9.88021 110.657 9.98437C110.415 10.0885 110.119 10.1406 109.771 10.1406ZM109.911 9.3125C110.276 9.3125 110.583 9.24089 110.833 9.09766C111.086 8.95443 111.276 8.76953 111.403 8.54297C111.534 8.31641 111.599 8.07812 111.599 7.82812V6.98437C111.56 7.03125 111.474 7.07422 111.341 7.11328C111.211 7.14974 111.06 7.18229 110.888 7.21094C110.718 7.23698 110.553 7.26042 110.392 7.28125C110.233 7.29948 110.104 7.3151 110.005 7.32812C109.765 7.35937 109.541 7.41016 109.333 7.48047C109.127 7.54818 108.961 7.65104 108.833 7.78906C108.708 7.92448 108.646 8.10937 108.646 8.34375C108.646 8.66406 108.764 8.90625 109.001 9.07031C109.241 9.23177 109.544 9.3125 109.911 9.3125ZM118.219 6.57812V7.4375H114.906V6.57812H118.219ZM115.125 4V10H114.203V4H115.125ZM118.922 4V10H118V4H118.922ZM123.699 10V4H126.152C126.798 4 127.311 4.14583 127.691 4.4375C128.072 4.72917 128.262 5.11458 128.262 5.59375C128.262 5.95833 128.154 6.24089 127.938 6.44141C127.721 6.63932 127.444 6.77344 127.105 6.84375C127.327 6.875 127.542 6.95312 127.75 7.07812C127.961 7.20312 128.135 7.375 128.273 7.59375C128.411 7.8099 128.48 8.07552 128.48 8.39062C128.48 8.69792 128.402 8.97266 128.246 9.21484C128.09 9.45703 127.866 9.64844 127.574 9.78906C127.283 9.92969 126.934 10 126.527 10H123.699ZM124.574 9.15625H126.527C126.845 9.15625 127.094 9.08073 127.273 8.92969C127.453 8.77865 127.543 8.57292 127.543 8.3125C127.543 8.0026 127.453 7.75911 127.273 7.58203C127.094 7.40234 126.845 7.3125 126.527 7.3125H124.574V9.15625ZM124.574 6.51562H126.152C126.4 6.51562 126.612 6.48177 126.789 6.41406C126.966 6.34375 127.102 6.24479 127.195 6.11719C127.292 5.98698 127.34 5.83333 127.34 5.65625C127.34 5.40365 127.234 5.20573 127.023 5.0625C126.813 4.91667 126.522 4.84375 126.152 4.84375H124.574V6.51562ZM135.407 10.125C134.845 10.125 134.36 9.99219 133.954 9.72656C133.548 9.46094 133.235 9.09505 133.017 8.62891C132.798 8.16276 132.688 7.63021 132.688 7.03125C132.688 6.42187 132.8 5.88411 133.024 5.41797C133.251 4.94922 133.566 4.58333 133.97 4.32031C134.376 4.05469 134.85 3.92188 135.392 3.92188C135.813 3.92188 136.194 4 136.532 4.15625C136.871 4.3125 137.148 4.53125 137.364 4.8125C137.58 5.09375 137.715 5.42187 137.767 5.79687H136.845C136.774 5.52344 136.618 5.28125 136.376 5.07031C136.136 4.85677 135.813 4.75 135.407 4.75C135.048 4.75 134.733 4.84375 134.462 5.03125C134.194 5.21615 133.984 5.47786 133.833 5.81641C133.685 6.15234 133.61 6.54687 133.61 7C133.61 7.46354 133.683 7.86719 133.829 8.21094C133.978 8.55469 134.186 8.82161 134.454 9.01172C134.725 9.20182 135.043 9.29688 135.407 9.29688C135.647 9.29688 135.864 9.25521 136.06 9.17187C136.255 9.08854 136.42 8.96875 136.556 8.8125C136.691 8.65625 136.787 8.46875 136.845 8.25H137.767C137.715 8.60417 137.586 8.92318 137.38 9.20703C137.177 9.48828 136.907 9.71224 136.571 9.87891C136.238 10.043 135.85 10.125 135.407 10.125ZM138.642 4.85937V4H143.517V4.85937H141.548V10H140.626V4.85937H138.642ZM145.455 12.25C145.299 12.25 145.16 12.237 145.037 12.2109C144.915 12.1875 144.83 12.1641 144.783 12.1406L145.018 11.3281C145.242 11.3854 145.439 11.4063 145.611 11.3906C145.783 11.375 145.936 11.2982 146.068 11.1602C146.204 11.0247 146.327 10.8047 146.439 10.5L146.611 10.0313L144.393 4H145.393L147.049 8.78125H147.111L148.768 4H149.768L147.221 10.875C147.106 11.1849 146.964 11.4414 146.795 11.6445C146.626 11.8503 146.429 12.0026 146.205 12.1016C145.984 12.2005 145.734 12.25 145.455 12.25ZM149.839 11.7188V9.14062H150.339C150.461 9.01302 150.567 8.875 150.655 8.72656C150.744 8.57812 150.821 8.40234 150.886 8.19922C150.953 7.99349 151.011 7.74349 151.058 7.44922C151.104 7.15234 151.146 6.79427 151.183 6.375L151.386 4H155.198V9.14062H156.12V11.7188H155.198V10H150.761V11.7188H149.839ZM151.386 9.14062H154.276V4.85937H152.245L152.089 6.375C152.024 7.0026 151.943 7.55078 151.847 8.01953C151.75 8.48828 151.597 8.86198 151.386 9.14062ZM158.266 8.64062L161.156 4H162.219V10H161.297V5.35938L158.422 10H157.344V4H158.266V8.64062ZM164.829 8.64062L167.72 4H168.782V10H167.86V5.35938L164.985 10H163.907V4H164.829V8.64062Z" fill="#919599"/>
    <path fill-rule="evenodd" clip-rule="evenodd" d="M71.505 35.1281V17.4916H81.579C84.0559 17.4916 86.0179 18.0288 87.4214 19.1331C88.8419 20.2317 89.5457 21.6541 89.5457 23.3784C89.5457 24.5261 89.2329 25.5666 88.6014 26.4945L88.6003 26.4961C87.9655 27.4122 87.0383 28.1275 85.8274 28.6407C84.6365 29.1557 83.2288 29.4082 81.6153 29.4082H76.4662V35.1281H71.505ZM83.5506 25.6614C84.2284 25.145 84.5845 24.4113 84.5845 23.4261C84.5845 22.4577 84.2292 21.7411 83.5536 21.2407C82.8753 20.7383 81.8928 20.4708 80.5617 20.4708H76.4662V26.4529H80.5617C81.9173 26.4529 82.895 26.1774 83.547 25.6641L83.5506 25.6614Z" fill="#919599"/>
    <path d="M67.5962 17.5879V20.9192H56.8109V35.2244H52V17.5879H67.5962Z" fill="#919599"/>
    <path d="M136.465 17.4899V20.8539H130.451V35.1264H125.641V20.8539H119.627V17.4899H136.465Z" fill="#919599"/>
    <path d="M153.676 31.1092C154.264 30.6737 154.839 30.1076 155.4 29.4108L158.928 31.2725C157.244 33.2974 155.2 34.6147 152.794 35.2244C151.618 35.4639 150.456 35.5836 149.307 35.5836C147.623 35.5836 146.166 35.3659 144.937 34.9304C143.012 34.3208 141.516 33.2321 140.447 31.6644C139.404 30.0749 138.883 28.3113 138.883 26.3735C138.883 24.6098 139.284 23.0095 140.086 21.5724C140.914 20.1354 142.144 19.0031 143.774 18.1758C145.404 17.4137 147.222 17.0327 149.226 17.0327C150.376 17.0327 151.485 17.1742 152.554 17.4572C153.65 17.7185 154.639 18.1104 155.521 18.633C156.857 19.4386 157.873 20.5491 158.567 21.9643C159.289 23.3578 159.65 24.8493 159.65 26.4388C159.65 26.8089 159.637 27.0811 159.61 27.2553H143.934C144.122 29.4762 145.057 30.9568 146.741 31.6971C147.623 32.0237 148.598 32.187 149.667 32.187C150.362 32.187 151.03 32.1216 151.672 31.991C152.447 31.8168 153.115 31.5229 153.676 31.1092ZM149.226 20.4293C148.05 20.4293 147.021 20.6906 146.139 21.2131C145.07 21.801 144.389 22.8462 144.095 24.3485H154.478C154.345 23.3687 153.957 22.5522 153.316 21.899C152.701 21.224 151.859 20.7886 150.79 20.5926C150.202 20.4837 149.681 20.4293 149.226 20.4293Z" fill="#919599"/>
    <path d="M177.094 30.4886C177.468 29.9878 177.736 29.4 177.896 28.725L182.627 29.8028C182.226 30.9568 181.544 32.0019 180.582 32.9381C179.647 33.8526 178.538 34.5167 177.255 34.9304C175.972 35.3876 174.569 35.6163 173.045 35.6163C171.495 35.6163 170.092 35.3876 168.836 34.9304C166.938 34.299 165.468 33.1994 164.426 31.6317C163.383 30.0423 162.862 28.3004 162.862 26.4061C162.862 24.5118 163.383 22.7591 164.426 21.1478C165.468 19.5366 166.938 18.3826 168.836 17.6859C170.119 17.2286 171.508 17 173.005 17C174.502 17 175.918 17.2286 177.255 17.6859C178.671 18.1866 179.847 18.9378 180.783 19.9394C181.718 20.9192 182.386 22.0405 182.787 23.3034L177.896 23.9566C177.709 23.1945 177.442 22.5849 177.094 22.1276C176.667 21.5615 176.079 21.1369 175.33 20.8539C174.609 20.5491 173.834 20.3966 173.005 20.3966C172.203 20.3966 171.428 20.5491 170.68 20.8539C169.958 21.1587 169.397 21.5833 168.996 22.1276C168.649 22.5849 168.381 23.1945 168.194 23.9566C168.007 24.6969 167.914 25.4916 167.914 26.3408C167.914 27.1682 168.007 27.952 168.194 28.6923C168.381 29.4326 168.649 30.0314 168.996 30.4886C169.424 31.0547 169.998 31.4902 170.72 31.795C171.468 32.0781 172.257 32.2196 173.085 32.2196C173.887 32.2196 174.649 32.0672 175.37 31.7624C176.119 31.4575 176.693 31.033 177.094 30.4886Z" fill="#919599"/>
    <path d="M191.033 27.6859V35.1264H186.222V17.4899H191.033V24.3485H201.055L205.906 17.4899H211.198L204.944 25.6937L212 35.1264H206.588L201.095 27.6859H191.033Z" fill="#919599"/>
    <path fill-rule="evenodd" clip-rule="evenodd" d="M114.717 33.4028C114.675 33.4341 114.635 33.4654 114.593 33.4962C114.628 33.4694 114.666 33.4421 114.701 33.4154C114.706 33.4108 114.713 33.4073 114.717 33.4028ZM116.005 21.3914C114.955 19.9859 113.498 18.9058 111.614 18.1483C109.693 17.3887 107.478 17.0019 104.95 17.0019C102.488 17.0019 100.304 17.4004 98.3843 18.1846C96.4652 18.9689 94.9923 20.0632 93.9423 21.4651C92.8641 22.869 92.3214 24.4764 92.3214 26.31C92.3214 28.1705 92.8664 29.7905 93.9399 31.1878C94.9923 32.5948 96.4628 33.6886 98.382 34.4723C100.301 35.2324 102.488 35.6182 104.95 35.6182C107.541 35.6182 109.789 35.2308 111.706 34.4718C113.59 33.7138 115.03 32.6473 116.047 31.2742C116.444 30.7283 116.763 30.144 117.008 29.5198C117.386 28.5477 117.578 27.4796 117.578 26.31C117.578 24.3921 117.048 22.7599 116.005 21.3914ZM96.5748 26.31C96.5748 28.0725 97.4299 29.4582 99.1235 30.4041C100.775 31.2994 102.345 31.7206 104.95 31.7206C106.366 31.7206 107.072 31.5938 108.223 31.3333C109.141 31.1257 109.971 30.8333 110.711 30.4526C112.454 29.5269 113.325 28.122 113.325 26.31C113.325 24.5476 112.468 23.172 110.772 22.2514C109.099 21.3353 107.529 20.8995 104.95 20.8995C102.375 20.8995 100.822 21.3212 99.1776 22.211C97.4487 23.1311 96.5748 24.5208 96.5748 26.31Z" fill="#919599"/>
    <defs>
        <clipPath id="clip0_360_128107">
            <rect width="40" height="40" rx="12" fill="white"/>
        </clipPath>
    </defs>
</svg>
