<svg width="160" height="38" viewBox="0 0 160 38" fill="none" xmlns="http://www.w3.org/2000/svg">
    <path d="M7.40625 4.5H6.4375C6.38021 4.22135 6.27995 3.97656 6.13672 3.76562C5.99609 3.55469 5.82422 3.3776 5.62109 3.23438C5.42057 3.08854 5.19792 2.97917 4.95313 2.90625C4.70833 2.83333 4.45313 2.79687 4.1875 2.79687C3.70313 2.79687 3.26432 2.91927 2.87109 3.16406C2.48047 3.40885 2.16927 3.76953 1.9375 4.24609C1.70833 4.72266 1.59375 5.30729 1.59375 6C1.59375 6.69271 1.70833 7.27734 1.9375 7.75391C2.16927 8.23047 2.48047 8.59115 2.87109 8.83594C3.26432 9.08073 3.70313 9.20312 4.1875 9.20312C4.45313 9.20312 4.70833 9.16667 4.95313 9.09375C5.19792 9.02083 5.42057 8.91276 5.62109 8.76953C5.82422 8.6237 5.99609 8.44531 6.13672 8.23437C6.27995 8.02083 6.38021 7.77604 6.4375 7.5H7.40625C7.33333 7.90885 7.20052 8.27474 7.00781 8.59766C6.8151 8.92057 6.57552 9.19531 6.28906 9.42187C6.0026 9.64583 5.68099 9.81641 5.32422 9.93359C4.97005 10.0508 4.59115 10.1094 4.1875 10.1094C3.50521 10.1094 2.89844 9.94271 2.36719 9.60938C1.83594 9.27604 1.41797 8.80208 1.11328 8.1875C0.808594 7.57292 0.65625 6.84375 0.65625 6C0.65625 5.15625 0.808594 4.42708 1.11328 3.8125C1.41797 3.19792 1.83594 2.72396 2.36719 2.39062C2.89844 2.05729 3.50521 1.89062 4.1875 1.89062C4.59115 1.89062 4.97005 1.94922 5.32422 2.06641C5.68099 2.18359 6.0026 2.35547 6.28906 2.58203C6.57552 2.80599 6.8151 3.07943 7.00781 3.40234C7.20052 3.72266 7.33333 4.08854 7.40625 4.5ZM10.6123 10.1406C10.2321 10.1406 9.88704 10.069 9.57715 9.92578C9.26725 9.77995 9.02116 9.57031 8.83887 9.29688C8.65658 9.02083 8.56543 8.6875 8.56543 8.29687C8.56543 7.95312 8.63314 7.67448 8.76855 7.46094C8.90397 7.24479 9.08496 7.07552 9.31152 6.95312C9.53809 6.83073 9.78809 6.73958 10.0615 6.67969C10.3376 6.61719 10.6149 6.56771 10.8936 6.53125C11.2581 6.48437 11.5537 6.44922 11.7803 6.42578C12.0094 6.39974 12.1761 6.35677 12.2803 6.29687C12.387 6.23698 12.4404 6.13281 12.4404 5.98437V5.95312C12.4404 5.56771 12.335 5.26823 12.124 5.05469C11.9157 4.84115 11.5993 4.73437 11.1748 4.73437C10.7347 4.73437 10.3896 4.83073 10.1396 5.02344C9.88965 5.21615 9.71387 5.42187 9.6123 5.64062L8.7373 5.32812C8.89355 4.96354 9.10189 4.67969 9.3623 4.47656C9.62533 4.27083 9.91178 4.1276 10.2217 4.04687C10.5342 3.96354 10.8415 3.92188 11.1436 3.92188C11.3363 3.92188 11.5576 3.94531 11.8076 3.99219C12.0602 4.03646 12.3037 4.12891 12.5381 4.26953C12.7751 4.41016 12.9717 4.6224 13.1279 4.90625C13.2842 5.1901 13.3623 5.57031 13.3623 6.04688V10H12.4404V9.1875H12.3936C12.3311 9.31771 12.2269 9.45703 12.0811 9.60547C11.9352 9.75391 11.7412 9.88021 11.499 9.98437C11.2568 10.0885 10.9613 10.1406 10.6123 10.1406ZM10.7529 9.3125C11.1175 9.3125 11.4248 9.24089 11.6748 9.09766C11.9274 8.95443 12.1175 8.76953 12.2451 8.54297C12.3753 8.31641 12.4404 8.07812 12.4404 7.82812V6.98437C12.4014 7.03125 12.3154 7.07422 12.1826 7.11328C12.0524 7.14974 11.9014 7.18229 11.7295 7.21094C11.5602 7.23698 11.3949 7.26042 11.2334 7.28125C11.0745 7.29948 10.9456 7.3151 10.8467 7.32812C10.6071 7.35937 10.3831 7.41016 10.1748 7.48047C9.96908 7.54818 9.80241 7.65104 9.6748 7.78906C9.5498 7.92448 9.4873 8.10937 9.4873 8.34375C9.4873 8.66406 9.60579 8.90625 9.84277 9.07031C10.0824 9.23177 10.3857 9.3125 10.7529 9.3125ZM15.9668 8.64062L18.8574 4H19.9199V10H18.998V5.35938L16.123 10H15.0449V4H15.9668V8.64062ZM18.248 2H19.1074C19.1074 2.42187 18.9616 2.76693 18.6699 3.03516C18.3783 3.30339 17.9824 3.4375 17.4824 3.4375C16.9902 3.4375 16.5983 3.30339 16.3066 3.03516C16.0176 2.76693 15.873 2.42187 15.873 2H16.7324C16.7324 2.20312 16.7884 2.38151 16.9004 2.53516C17.015 2.6888 17.209 2.76562 17.4824 2.76562C17.7559 2.76562 17.9512 2.6888 18.0684 2.53516C18.1882 2.38151 18.248 2.20312 18.248 2ZM20.792 4.85937V4H25.667V4.85937H23.6982V10H22.7764V4.85937H20.792ZM32.543 10.125C31.9805 10.125 31.4961 9.99219 31.0898 9.72656C30.6836 9.46094 30.3711 9.09505 30.1523 8.62891C29.9336 8.16276 29.8242 7.63021 29.8242 7.03125C29.8242 6.42187 29.9362 5.88411 30.1602 5.41797C30.3867 4.94922 30.7018 4.58333 31.1055 4.32031C31.5117 4.05469 31.9857 3.92188 32.5273 3.92188C32.9492 3.92188 33.3294 4 33.668 4.15625C34.0065 4.3125 34.2839 4.53125 34.5 4.8125C34.7161 5.09375 34.8503 5.42187 34.9023 5.79687H33.9805C33.9102 5.52344 33.7539 5.28125 33.5117 5.07031C33.2721 4.85677 32.9492 4.75 32.543 4.75C32.1836 4.75 31.8685 4.84375 31.5977 5.03125C31.3294 5.21615 31.1198 5.47786 30.9687 5.81641C30.8203 6.15234 30.7461 6.54687 30.7461 7C30.7461 7.46354 30.819 7.86719 30.9648 8.21094C31.1133 8.55469 31.3216 8.82161 31.5898 9.01172C31.8607 9.20182 32.1784 9.29688 32.543 9.29688C32.7826 9.29688 33 9.25521 33.1953 9.17187C33.3906 9.08854 33.556 8.96875 33.6914 8.8125C33.8268 8.65625 33.9232 8.46875 33.9805 8.25H34.9023C34.8503 8.60417 34.7214 8.92318 34.5156 9.20703C34.3125 9.48828 34.043 9.71224 33.707 9.87891C33.3737 10.043 32.9857 10.125 32.543 10.125ZM35.6094 11.7188V9.14062H36.1094C36.2318 9.01302 36.3372 8.875 36.4258 8.72656C36.5143 8.57812 36.5911 8.40234 36.6563 8.19922C36.724 7.99349 36.7813 7.74349 36.8281 7.44922C36.875 7.15234 36.9167 6.79427 36.9531 6.375L37.1562 4H40.9687V9.14062H41.8906V11.7188H40.9687V10H36.5313V11.7188H35.6094ZM37.1562 9.14062H40.0469V4.85937H38.0156L37.8594 6.375C37.7943 7.0026 37.7135 7.55078 37.6172 8.01953C37.5208 8.48828 37.3672 8.86198 37.1562 9.14062ZM45.6299 10.125C45.0518 10.125 44.5531 9.9974 44.1338 9.74219C43.7171 9.48438 43.3955 9.125 43.1689 8.66406C42.945 8.20052 42.833 7.66146 42.833 7.04688C42.833 6.43229 42.945 5.89062 43.1689 5.42187C43.3955 4.95052 43.7106 4.58333 44.1143 4.32031C44.5205 4.05469 44.9945 3.92188 45.5361 3.92188C45.8486 3.92188 46.1572 3.97396 46.4619 4.07812C46.7666 4.18229 47.0439 4.35156 47.2939 4.58594C47.5439 4.81771 47.7432 5.125 47.8916 5.50781C48.04 5.89062 48.1143 6.36198 48.1143 6.92187V7.3125H43.4893V6.51562H47.1768C47.1768 6.17708 47.109 5.875 46.9736 5.60937C46.8408 5.34375 46.6507 5.13411 46.4033 4.98047C46.1585 4.82682 45.8695 4.75 45.5361 4.75C45.1689 4.75 44.8512 4.84115 44.583 5.02344C44.3174 5.20312 44.113 5.4375 43.9697 5.72656C43.8265 6.01562 43.7549 6.32552 43.7549 6.65625V7.1875C43.7549 7.64063 43.833 8.02474 43.9893 8.33984C44.1481 8.65234 44.3682 8.89062 44.6494 9.05469C44.9307 9.21615 45.2575 9.29688 45.6299 9.29688C45.8721 9.29688 46.0908 9.26302 46.2861 9.19531C46.484 9.125 46.6546 9.02083 46.7979 8.88281C46.9411 8.74219 47.0518 8.56771 47.1299 8.35937L48.0205 8.60938C47.9268 8.91146 47.7692 9.17708 47.5479 9.40625C47.3265 9.63281 47.0531 9.8099 46.7275 9.9375C46.402 10.0625 46.0361 10.125 45.6299 10.125ZM48.9854 10V9.14062H49.2041C49.3838 9.14062 49.5335 9.10547 49.6533 9.03516C49.7731 8.96224 49.8695 8.83594 49.9424 8.65625C50.0179 8.47396 50.0752 8.22135 50.1143 7.89844C50.1559 7.57292 50.1859 7.15885 50.2041 6.65625L50.3135 4H54.3135V10H53.3916V4.85937H51.1885L51.0947 7C51.0739 7.49219 51.0296 7.92578 50.9619 8.30078C50.8968 8.67318 50.7965 8.98568 50.6611 9.23828C50.5283 9.49089 50.3512 9.68099 50.1299 9.80859C49.9085 9.9362 49.6312 10 49.2979 10H48.9854ZM57.7705 10.1406C57.3903 10.1406 57.0452 10.069 56.7354 9.92578C56.4255 9.77995 56.1794 9.57031 55.9971 9.29688C55.8148 9.02083 55.7236 8.6875 55.7236 8.29687C55.7236 7.95312 55.7913 7.67448 55.9268 7.46094C56.0622 7.24479 56.2432 7.07552 56.4697 6.95312C56.6963 6.83073 56.9463 6.73958 57.2197 6.67969C57.4958 6.61719 57.7731 6.56771 58.0518 6.53125C58.4163 6.48437 58.7119 6.44922 58.9385 6.42578C59.1676 6.39974 59.3343 6.35677 59.4385 6.29687C59.5452 6.23698 59.5986 6.13281 59.5986 5.98437V5.95312C59.5986 5.56771 59.4932 5.26823 59.2822 5.05469C59.0739 4.84115 58.7575 4.73437 58.333 4.73437C57.8929 4.73437 57.5479 4.83073 57.2979 5.02344C57.0479 5.21615 56.8721 5.42187 56.7705 5.64062L55.8955 5.32812C56.0518 4.96354 56.2601 4.67969 56.5205 4.47656C56.7835 4.27083 57.07 4.1276 57.3799 4.04687C57.6924 3.96354 57.9997 3.92188 58.3018 3.92188C58.4945 3.92188 58.7158 3.94531 58.9658 3.99219C59.2184 4.03646 59.4619 4.12891 59.6963 4.26953C59.9333 4.41016 60.1299 4.6224 60.2861 4.90625C60.4424 5.1901 60.5205 5.57031 60.5205 6.04688V10H59.5986V9.1875H59.5518C59.4893 9.31771 59.3851 9.45703 59.2393 9.60547C59.0934 9.75391 58.8994 9.88021 58.6572 9.98437C58.415 10.0885 58.1195 10.1406 57.7705 10.1406ZM57.9111 9.3125C58.2757 9.3125 58.583 9.24089 58.833 9.09766C59.0856 8.95443 59.2757 8.76953 59.4033 8.54297C59.5335 8.31641 59.5986 8.07812 59.5986 7.82812V6.98437C59.5596 7.03125 59.4736 7.07422 59.3408 7.11328C59.2106 7.14974 59.0596 7.18229 58.8877 7.21094C58.7184 7.23698 58.5531 7.26042 58.3916 7.28125C58.2327 7.29948 58.1038 7.3151 58.0049 7.32812C57.7653 7.35937 57.5413 7.41016 57.333 7.48047C57.1273 7.54818 56.9606 7.65104 56.833 7.78906C56.708 7.92448 56.6455 8.10937 56.6455 8.34375C56.6455 8.66406 56.764 8.90625 57.001 9.07031C57.2406 9.23177 57.5439 9.3125 57.9111 9.3125ZM66.2188 6.57812V7.4375H62.9062V6.57812H66.2188ZM63.125 4V10H62.2031V4H63.125ZM66.9219 4V10H66V4H66.9219ZM71.6992 10V4H74.1523C74.7982 4 75.3112 4.14583 75.6914 4.4375C76.0716 4.72917 76.2617 5.11458 76.2617 5.59375C76.2617 5.95833 76.1536 6.24089 75.9375 6.44141C75.7214 6.63932 75.444 6.77344 75.1055 6.84375C75.3268 6.875 75.5417 6.95312 75.75 7.07812C75.9609 7.20312 76.1354 7.375 76.2734 7.59375C76.4115 7.8099 76.4805 8.07552 76.4805 8.39062C76.4805 8.69792 76.4023 8.97266 76.2461 9.21484C76.0898 9.45703 75.8659 9.64844 75.5742 9.78906C75.2826 9.92969 74.9336 10 74.5273 10H71.6992ZM72.5742 9.15625H74.5273C74.8451 9.15625 75.0938 9.08073 75.2734 8.92969C75.4531 8.77865 75.543 8.57292 75.543 8.3125C75.543 8.0026 75.4531 7.75911 75.2734 7.58203C75.0938 7.40234 74.8451 7.3125 74.5273 7.3125H72.5742V9.15625ZM72.5742 6.51562H74.1523C74.3997 6.51562 74.612 6.48177 74.7891 6.41406C74.9661 6.34375 75.1016 6.24479 75.1953 6.11719C75.2917 5.98698 75.3398 5.83333 75.3398 5.65625C75.3398 5.40365 75.2344 5.20573 75.0234 5.0625C74.8125 4.91667 74.5221 4.84375 74.1523 4.84375H72.5742V6.51562ZM83.4072 10.125C82.8447 10.125 82.3604 9.99219 81.9541 9.72656C81.5479 9.46094 81.2354 9.09505 81.0166 8.62891C80.7979 8.16276 80.6885 7.63021 80.6885 7.03125C80.6885 6.42187 80.8005 5.88411 81.0244 5.41797C81.251 4.94922 81.5661 4.58333 81.9697 4.32031C82.376 4.05469 82.8499 3.92188 83.3916 3.92188C83.8135 3.92188 84.1937 4 84.5322 4.15625C84.8708 4.3125 85.1481 4.53125 85.3643 4.8125C85.5804 5.09375 85.7145 5.42187 85.7666 5.79687H84.8447C84.7744 5.52344 84.6182 5.28125 84.376 5.07031C84.1364 4.85677 83.8135 4.75 83.4072 4.75C83.0479 4.75 82.7327 4.84375 82.4619 5.03125C82.1937 5.21615 81.984 5.47786 81.833 5.81641C81.6846 6.15234 81.6104 6.54687 81.6104 7C81.6104 7.46354 81.6833 7.86719 81.8291 8.21094C81.9775 8.55469 82.1859 8.82161 82.4541 9.01172C82.7249 9.20182 83.0426 9.29688 83.4072 9.29688C83.6468 9.29688 83.8643 9.25521 84.0596 9.17187C84.2549 9.08854 84.4202 8.96875 84.5557 8.8125C84.6911 8.65625 84.7874 8.46875 84.8447 8.25H85.7666C85.7145 8.60417 85.5856 8.92318 85.3799 9.20703C85.1768 9.48828 84.9072 9.71224 84.5713 9.87891C84.238 10.043 83.8499 10.125 83.4072 10.125ZM86.6416 4.85937V4H91.5166V4.85937H89.5479V10H88.626V4.85937H86.6416ZM93.4551 12.25C93.2988 12.25 93.1595 12.237 93.0371 12.2109C92.9147 12.1875 92.8301 12.1641 92.7832 12.1406L93.0176 11.3281C93.2415 11.3854 93.4395 11.4063 93.6113 11.3906C93.7832 11.375 93.9355 11.2982 94.0684 11.1602C94.2038 11.0247 94.3275 10.8047 94.4395 10.5L94.6113 10.0313L92.3926 4H93.3926L95.0488 8.78125H95.1113L96.7676 4H97.7676L95.2207 10.875C95.1061 11.1849 94.9642 11.4414 94.7949 11.6445C94.6257 11.8503 94.429 12.0026 94.2051 12.1016C93.9837 12.2005 93.7337 12.25 93.4551 12.25ZM97.8389 11.7188V9.14062H98.3389C98.4613 9.01302 98.5667 8.875 98.6553 8.72656C98.7438 8.57812 98.8206 8.40234 98.8857 8.19922C98.9535 7.99349 99.0107 7.74349 99.0576 7.44922C99.1045 7.15234 99.1462 6.79427 99.1826 6.375L99.3857 4H103.198V9.14062H104.12V11.7188H103.198V10H98.7607V11.7188H97.8389ZM99.3857 9.14062H102.276V4.85937H100.245L100.089 6.375C100.024 7.0026 99.943 7.55078 99.8467 8.01953C99.7503 8.48828 99.5967 8.86198 99.3857 9.14062ZM106.266 8.64062L109.156 4H110.219V10H109.297V5.35938L106.422 10H105.344V4H106.266V8.64062ZM112.829 8.64062L115.72 4H116.782V10H115.86V5.35938L112.985 10H111.907V4H112.829V8.64062Z" fill="white"/>
    <path fill-rule="evenodd" clip-rule="evenodd" d="M19.505 35.1281V17.4916H29.579C32.0559 17.4916 34.0179 18.0288 35.4214 19.1331C36.8419 20.2317 37.5457 21.6541 37.5457 23.3784C37.5457 24.5261 37.2329 25.5666 36.6014 26.4945L36.6003 26.4961C35.9655 27.4122 35.0383 28.1275 33.8274 28.6407C32.6365 29.1557 31.2288 29.4082 29.6153 29.4082H24.4662V35.1281H19.505ZM31.5506 25.6614C32.2284 25.145 32.5845 24.4113 32.5845 23.4261C32.5845 22.4577 32.2292 21.7411 31.5536 21.2407C30.8753 20.7383 29.8928 20.4708 28.5617 20.4708H24.4662V26.4529H28.5617C29.9173 26.4529 30.895 26.1774 31.547 25.6641L31.5506 25.6614Z" fill="white"/>
    <path d="M15.5962 17.5879V20.9192H4.81085V35.2244H0V17.5879H15.5962Z" fill="white"/>
    <path d="M84.4651 17.4899V20.8539H78.4515V35.1264H73.6406V20.8539H67.6271V17.4899H84.4651Z" fill="white"/>
    <path d="M101.676 31.1092C102.264 30.6737 102.839 30.1076 103.4 29.4108L106.928 31.2725C105.244 33.2974 103.2 34.6147 100.794 35.2244C99.6184 35.4639 98.4558 35.5836 97.3065 35.5836C95.6227 35.5836 94.1661 35.3659 92.9367 34.9304C91.0123 34.3208 89.5156 33.2321 88.4466 31.6644C87.4042 30.0749 86.883 28.3113 86.883 26.3735C86.883 24.6098 87.2839 23.0095 88.0857 21.5724C88.9143 20.1354 90.1437 19.0031 91.7741 18.1758C93.4044 17.4137 95.2218 17.0327 97.2264 17.0327C98.3756 17.0327 99.4848 17.1742 100.554 17.4572C101.65 17.7185 102.639 18.1104 103.521 18.633C104.857 19.4386 105.873 20.5491 106.567 21.9643C107.289 23.3578 107.65 24.8493 107.65 26.4388C107.65 26.8089 107.637 27.0811 107.61 27.2553H91.9344C92.1215 29.4762 93.057 30.9568 94.7408 31.6971C95.6227 32.0237 96.5983 32.187 97.6674 32.187C98.3623 32.187 99.0304 32.1216 99.6719 31.991C100.447 31.8168 101.115 31.5229 101.676 31.1092ZM97.2264 20.4293C96.0504 20.4293 95.0214 20.6906 94.1394 21.2131C93.0703 21.801 92.3888 22.8462 92.0948 24.3485H102.478C102.345 23.3687 101.957 22.5522 101.316 21.899C100.701 21.224 99.859 20.7886 98.7899 20.5926C98.2019 20.4837 97.6807 20.4293 97.2264 20.4293Z" fill="white"/>
    <path d="M125.094 30.4886C125.468 29.9878 125.736 29.4 125.896 28.725L130.627 29.8028C130.226 30.9568 129.544 32.0019 128.582 32.9381C127.647 33.8526 126.538 34.5167 125.255 34.9304C123.972 35.3876 122.569 35.6163 121.045 35.6163C119.495 35.6163 118.092 35.3876 116.836 34.9304C114.938 34.299 113.468 33.1994 112.426 31.6317C111.383 30.0423 110.862 28.3004 110.862 26.4061C110.862 24.5118 111.383 22.7591 112.426 21.1478C113.468 19.5366 114.938 18.3826 116.836 17.6859C118.119 17.2286 119.508 17 121.005 17C122.502 17 123.918 17.2286 125.255 17.6859C126.671 18.1866 127.847 18.9378 128.783 19.9394C129.718 20.9192 130.386 22.0405 130.787 23.3034L125.896 23.9566C125.709 23.1945 125.442 22.5849 125.094 22.1276C124.667 21.5615 124.079 21.1369 123.33 20.8539C122.609 20.5491 121.834 20.3966 121.005 20.3966C120.203 20.3966 119.428 20.5491 118.68 20.8539C117.958 21.1587 117.397 21.5833 116.996 22.1276C116.649 22.5849 116.381 23.1945 116.194 23.9566C116.007 24.6969 115.914 25.4916 115.914 26.3408C115.914 27.1682 116.007 27.952 116.194 28.6923C116.381 29.4326 116.649 30.0314 116.996 30.4886C117.424 31.0547 117.998 31.4902 118.72 31.795C119.468 32.0781 120.257 32.2196 121.085 32.2196C121.887 32.2196 122.649 32.0672 123.37 31.7624C124.119 31.4575 124.693 31.033 125.094 30.4886Z" fill="white"/>
    <path d="M139.033 27.6859V35.1264H134.222V17.4899H139.033V24.3485H149.055L153.906 17.4899H159.198L152.944 25.6937L160 35.1264H154.588L149.095 27.6859H139.033Z" fill="white"/>
    <path fill-rule="evenodd" clip-rule="evenodd" d="M62.7173 33.4028C62.675 33.4341 62.6351 33.4654 62.5928 33.4962C62.628 33.4694 62.6656 33.4421 62.7008 33.4154C62.7055 33.4108 62.7126 33.4073 62.7173 33.4028ZM64.0046 21.3914C62.9545 19.9859 61.4981 18.9058 59.6142 18.1483C57.6927 17.3887 55.4775 17.0019 52.9499 17.0019C50.4881 17.0019 48.3035 17.4004 46.3843 18.1846C44.4652 18.9689 42.9923 20.0632 41.9423 21.4651C40.8641 22.869 40.3214 24.4764 40.3214 26.31C40.3214 28.1705 40.8664 29.7905 41.9399 31.1878C42.9923 32.5948 44.4628 33.6886 46.382 34.4723C48.3012 35.2324 50.4881 35.6182 52.9499 35.6182C55.5409 35.6182 57.789 35.2308 59.7058 34.4718C61.5897 33.7138 63.0297 32.6473 64.0469 31.2742C64.4438 30.7283 64.7633 30.144 65.0076 29.5198C65.3858 28.5477 65.5784 27.4796 65.5784 26.31C65.5784 24.3921 65.0475 22.7599 64.0046 21.3914ZM44.5748 26.31C44.5748 28.0725 45.4299 29.4582 47.1235 30.4041C48.7749 31.2994 50.3448 31.7206 52.9499 31.7206C54.3664 31.7206 55.0719 31.5938 56.2229 31.3333C57.1414 31.1257 57.9706 30.8333 58.7106 30.4526C60.4536 29.5269 61.325 28.122 61.325 26.31C61.325 24.5476 60.4676 23.172 58.7716 22.2514C57.0991 21.3353 55.5292 20.8995 52.9499 20.8995C50.3754 20.8995 48.8219 21.3212 47.1776 22.211C45.4487 23.1311 44.5748 24.5208 44.5748 26.31Z" fill="white"/>
</svg>
