<svg width="114" height="40" viewBox="0 0 114 40" fill="none" xmlns="http://www.w3.org/2000/svg">
    <path d="M6.40625 10H5.4375V2.85937H3.73438C3.30208 2.85937 2.95443 2.92578 2.69141 3.05859C2.42839 3.1888 2.23698 3.3737 2.11719 3.61328C1.9974 3.85286 1.9375 4.13281 1.9375 4.45312C1.9375 4.77344 1.99609 5.04948 2.11328 5.28125C2.23307 5.51042 2.42318 5.6875 2.68359 5.8125C2.94661 5.9375 3.29167 6 3.71875 6H5.875V6.875H3.6875C3.06771 6.875 2.55859 6.77214 2.16016 6.56641C1.76172 6.35807 1.46615 6.07161 1.27344 5.70703C1.08073 5.34245 0.984375 4.92448 0.984375 4.45312C0.984375 3.98177 1.08073 3.5612 1.27344 3.19141C1.46615 2.82161 1.76302 2.53125 2.16406 2.32031C2.5651 2.10677 3.07813 2 3.70313 2H6.40625V10ZM2.64063 6.40625H3.73438L1.79688 10H0.671875L2.64063 6.40625ZM7.58301 11.7188V9.14062H8.08301C8.2054 9.01302 8.31087 8.875 8.39941 8.72656C8.48796 8.57812 8.56478 8.40234 8.62988 8.19922C8.69759 7.99349 8.75488 7.74349 8.80176 7.44922C8.84863 7.15234 8.8903 6.79427 8.92676 6.375L9.12988 4H12.9424V9.14062H13.8643V11.7188H12.9424V10H8.50488V11.7188H7.58301ZM9.12988 9.14062H12.0205V4.85937H9.98926L9.83301 6.375C9.7679 7.0026 9.68717 7.55078 9.59082 8.01953C9.49447 8.48828 9.34082 8.86198 9.12988 9.14062ZM15.0879 12.25V4H15.9785V4.95312H16.0879C16.1556 4.84896 16.2493 4.71615 16.3691 4.55469C16.4915 4.39062 16.666 4.24479 16.8926 4.11719C17.1217 3.98698 17.4316 3.92188 17.8223 3.92188C18.3275 3.92188 18.7728 4.04818 19.1582 4.30078C19.5436 4.55339 19.8444 4.91146 20.0605 5.375C20.2767 5.83854 20.3848 6.38542 20.3848 7.01563C20.3848 7.65104 20.2767 8.20182 20.0605 8.66797C19.8444 9.13151 19.5449 9.49089 19.1621 9.74609C18.7793 9.9987 18.3379 10.125 17.8379 10.125C17.4525 10.125 17.1439 10.0612 16.9121 9.93359C16.6803 9.80339 16.502 9.65625 16.377 9.49219C16.252 9.32552 16.1556 9.1875 16.0879 9.07812H16.0098V12.25H15.0879ZM15.9941 7C15.9941 7.45312 16.0605 7.85286 16.1934 8.19922C16.3262 8.54297 16.5202 8.8125 16.7754 9.00781C17.0306 9.20052 17.3431 9.29688 17.7129 9.29688C18.0983 9.29688 18.4199 9.19531 18.6777 8.99219C18.9382 8.78646 19.1335 8.51042 19.2637 8.16406C19.3965 7.8151 19.4629 7.42708 19.4629 7C19.4629 6.57812 19.3978 6.19792 19.2676 5.85937C19.14 5.51823 18.946 5.2487 18.6855 5.05078C18.4277 4.85026 18.1035 4.75 17.7129 4.75C17.3379 4.75 17.0228 4.84505 16.7676 5.03516C16.5124 5.22266 16.3197 5.48568 16.1895 5.82422C16.0592 6.16016 15.9941 6.55208 15.9941 7ZM24.2285 10.125C23.6868 10.125 23.2116 9.99609 22.8027 9.73828C22.3965 9.48047 22.0788 9.11979 21.8496 8.65625C21.623 8.19271 21.5098 7.65104 21.5098 7.03125C21.5098 6.40625 21.623 5.86068 21.8496 5.39453C22.0788 4.92839 22.3965 4.56641 22.8027 4.30859C23.2116 4.05078 23.6868 3.92188 24.2285 3.92188C24.7702 3.92188 25.2441 4.05078 25.6504 4.30859C26.0592 4.56641 26.377 4.92839 26.6035 5.39453C26.8327 5.86068 26.9473 6.40625 26.9473 7.03125C26.9473 7.65104 26.8327 8.19271 26.6035 8.65625C26.377 9.11979 26.0592 9.48047 25.6504 9.73828C25.2441 9.99609 24.7702 10.125 24.2285 10.125ZM24.2285 9.29688C24.64 9.29688 24.9785 9.19141 25.2441 8.98047C25.5098 8.76953 25.7064 8.49219 25.834 8.14844C25.9616 7.80469 26.0254 7.43229 26.0254 7.03125C26.0254 6.63021 25.9616 6.25651 25.834 5.91016C25.7064 5.5638 25.5098 5.28385 25.2441 5.07031C24.9785 4.85677 24.64 4.75 24.2285 4.75C23.8171 4.75 23.4785 4.85677 23.2129 5.07031C22.9473 5.28385 22.7507 5.5638 22.623 5.91016C22.4954 6.25651 22.4316 6.63021 22.4316 7.03125C22.4316 7.43229 22.4954 7.80469 22.623 8.14844C22.7507 8.49219 22.9473 8.76953 23.2129 8.98047C23.4785 9.19141 23.8171 9.29688 24.2285 9.29688ZM33.8857 10.125C33.3232 10.125 32.8389 9.99219 32.4326 9.72656C32.0264 9.46094 31.7139 9.09505 31.4951 8.62891C31.2764 8.16276 31.167 7.63021 31.167 7.03125C31.167 6.42187 31.279 5.88411 31.5029 5.41797C31.7295 4.94922 32.0446 4.58333 32.4482 4.32031C32.8545 4.05469 33.3285 3.92188 33.8701 3.92188C34.292 3.92188 34.6722 4 35.0107 4.15625C35.3493 4.3125 35.6266 4.53125 35.8428 4.8125C36.0589 5.09375 36.193 5.42187 36.2451 5.79687H35.3232C35.2529 5.52344 35.0967 5.28125 34.8545 5.07031C34.6149 4.85677 34.292 4.75 33.8857 4.75C33.5264 4.75 33.2113 4.84375 32.9404 5.03125C32.6722 5.21615 32.4626 5.47786 32.3115 5.81641C32.1631 6.15234 32.0889 6.54687 32.0889 7C32.0889 7.46354 32.1618 7.86719 32.3076 8.21094C32.4561 8.55469 32.6644 8.82161 32.9326 9.01172C33.2035 9.20182 33.5212 9.29688 33.8857 9.29688C34.1253 9.29688 34.3428 9.25521 34.5381 9.17187C34.7334 9.08854 34.8988 8.96875 35.0342 8.8125C35.1696 8.65625 35.266 8.46875 35.3232 8.25H36.2451C36.193 8.60417 36.0641 8.92318 35.8584 9.20703C35.6553 9.48828 35.3857 9.71224 35.0498 9.87891C34.7165 10.043 34.3285 10.125 33.8857 10.125ZM39.3584 10.1406C38.9782 10.1406 38.6331 10.069 38.3232 9.92578C38.0133 9.77995 37.7673 9.57031 37.585 9.29688C37.4027 9.02083 37.3115 8.6875 37.3115 8.29687C37.3115 7.95312 37.3792 7.67448 37.5146 7.46094C37.6501 7.24479 37.8311 7.07552 38.0576 6.95312C38.2842 6.83073 38.5342 6.73958 38.8076 6.67969C39.0837 6.61719 39.361 6.56771 39.6396 6.53125C40.0042 6.48437 40.2998 6.44922 40.5264 6.42578C40.7555 6.39974 40.9222 6.35677 41.0264 6.29687C41.1331 6.23698 41.1865 6.13281 41.1865 5.98437V5.95312C41.1865 5.56771 41.0811 5.26823 40.8701 5.05469C40.6618 4.84115 40.3454 4.73437 39.9209 4.73437C39.4808 4.73437 39.1357 4.83073 38.8857 5.02344C38.6357 5.21615 38.46 5.42187 38.3584 5.64062L37.4834 5.32812C37.6396 4.96354 37.848 4.67969 38.1084 4.47656C38.3714 4.27083 38.6579 4.1276 38.9678 4.04687C39.2803 3.96354 39.5876 3.92188 39.8896 3.92188C40.0824 3.92188 40.3037 3.94531 40.5537 3.99219C40.8063 4.03646 41.0498 4.12891 41.2842 4.26953C41.5212 4.41016 41.7178 4.6224 41.874 4.90625C42.0303 5.1901 42.1084 5.57031 42.1084 6.04688V10H41.1865V9.1875H41.1396C41.0771 9.31771 40.973 9.45703 40.8271 9.60547C40.6813 9.75391 40.4873 9.88021 40.2451 9.98437C40.0029 10.0885 39.7074 10.1406 39.3584 10.1406ZM39.499 9.3125C39.8636 9.3125 40.1709 9.24089 40.4209 9.09766C40.6735 8.95443 40.8636 8.76953 40.9912 8.54297C41.1214 8.31641 41.1865 8.07812 41.1865 7.82812V6.98437C41.1475 7.03125 41.0615 7.07422 40.9287 7.11328C40.7985 7.14974 40.6475 7.18229 40.4756 7.21094C40.3063 7.23698 40.141 7.26042 39.9795 7.28125C39.8206 7.29948 39.6917 7.3151 39.5928 7.32812C39.3532 7.35937 39.1292 7.41016 38.9209 7.48047C38.7152 7.54818 38.5485 7.65104 38.4209 7.78906C38.2959 7.92448 38.2334 8.10937 38.2334 8.34375C38.2334 8.66406 38.3519 8.90625 38.5889 9.07031C38.8285 9.23177 39.1318 9.3125 39.499 9.3125ZM44.7129 8.64062L47.6035 4H48.666V10H47.7441V5.35938L44.8691 10H43.791V4H44.7129V8.64062ZM46.9941 2H47.8535C47.8535 2.42187 47.7077 2.76693 47.416 3.03516C47.1243 3.30339 46.7285 3.4375 46.2285 3.4375C45.7363 3.4375 45.3444 3.30339 45.0527 3.03516C44.7637 2.76693 44.6191 2.42187 44.6191 2H45.4785C45.4785 2.20312 45.5345 2.38151 45.6465 2.53516C45.7611 2.6888 45.9551 2.76562 46.2285 2.76562C46.502 2.76562 46.6973 2.6888 46.8145 2.53516C46.9342 2.38151 46.9941 2.20312 46.9941 2ZM49.5381 4.85937V4H54.4131V4.85937H52.4443V10H51.5225V4.85937H49.5381ZM57.2119 10.1406C56.8317 10.1406 56.4867 10.069 56.1768 9.92578C55.8669 9.77995 55.6208 9.57031 55.4385 9.29688C55.2562 9.02083 55.165 8.6875 55.165 8.29687C55.165 7.95312 55.2327 7.67448 55.3682 7.46094C55.5036 7.24479 55.6846 7.07552 55.9111 6.95312C56.1377 6.83073 56.3877 6.73958 56.6611 6.67969C56.9372 6.61719 57.2145 6.56771 57.4932 6.53125C57.8577 6.48437 58.1533 6.44922 58.3799 6.42578C58.609 6.39974 58.7757 6.35677 58.8799 6.29687C58.9867 6.23698 59.04 6.13281 59.04 5.98437V5.95312C59.04 5.56771 58.9346 5.26823 58.7236 5.05469C58.5153 4.84115 58.1989 4.73437 57.7744 4.73437C57.3343 4.73437 56.9893 4.83073 56.7393 5.02344C56.4893 5.21615 56.3135 5.42187 56.2119 5.64062L55.3369 5.32812C55.4932 4.96354 55.7015 4.67969 55.9619 4.47656C56.2249 4.27083 56.5114 4.1276 56.8213 4.04687C57.1338 3.96354 57.4411 3.92188 57.7432 3.92188C57.9359 3.92188 58.1572 3.94531 58.4072 3.99219C58.6598 4.03646 58.9033 4.12891 59.1377 4.26953C59.3747 4.41016 59.5713 4.6224 59.7275 4.90625C59.8838 5.1901 59.9619 5.57031 59.9619 6.04688V10H59.04V9.1875H58.9932C58.9307 9.31771 58.8265 9.45703 58.6807 9.60547C58.5348 9.75391 58.3408 9.88021 58.0986 9.98437C57.8564 10.0885 57.5609 10.1406 57.2119 10.1406ZM57.3525 9.3125C57.7171 9.3125 58.0244 9.24089 58.2744 9.09766C58.527 8.95443 58.7171 8.76953 58.8447 8.54297C58.9749 8.31641 59.04 8.07812 59.04 7.82812V6.98437C59.001 7.03125 58.915 7.07422 58.7822 7.11328C58.652 7.14974 58.501 7.18229 58.3291 7.21094C58.1598 7.23698 57.9945 7.26042 57.833 7.28125C57.6742 7.29948 57.5452 7.3151 57.4463 7.32812C57.2067 7.35937 56.9827 7.41016 56.7744 7.48047C56.5687 7.54818 56.402 7.65104 56.2744 7.78906C56.1494 7.92448 56.0869 8.10937 56.0869 8.34375C56.0869 8.66406 56.2054 8.90625 56.4424 9.07031C56.682 9.23177 56.9854 9.3125 57.3525 9.3125Z" fill="white"/>
    <path d="M94.8033 25.7587C94.5608 25.761 94.3484 25.8188 94.1486 25.8339C92.0137 26.3528 90.1014 27.2172 88.5226 28.7113C88.2107 29.0094 87.8654 29.2324 87.4532 29.3053C86.6092 29.4544 85.9779 28.8571 86.0753 28.0299C86.0927 27.7838 86.1529 27.5504 86.2557 27.3297C86.6268 26.3326 87.0867 25.3805 87.7209 24.4989C88.339 23.6404 88.9074 22.7299 89.5289 21.891C90.4484 20.6755 91.5434 19.6517 92.8333 18.8163C93.599 18.3367 94.345 17.8606 95.1672 17.4724C95.7088 17.2146 96.2607 17.0159 96.8427 16.8725C97.5031 16.7153 98.1173 16.8701 98.6678 17.2386C99.126 17.5424 99.1064 17.5459 99.3479 17.0779C99.4865 16.8307 99.6056 16.5869 99.7938 16.3916C99.959 16.1802 100.17 16.0011 100.415 15.8971C100.787 15.7098 101.154 15.726 101.484 15.9917C101.814 16.2574 101.916 16.604 101.841 16.9818C101.816 17.1886 101.736 17.4255 101.623 17.5872C101.083 18.3106 100.538 19.0142 99.9944 19.7179C99.8743 19.8404 99.731 19.9467 99.5844 20.0334C99.0693 20.3269 98.5395 20.0762 98.4197 19.5101C98.3921 19.353 98.3841 19.1924 98.3564 19.0352C98.3415 18.8354 98.3266 18.6355 98.292 18.4391C98.2333 18.1052 98.0187 17.9203 97.7001 17.8349C97.3814 17.7494 97.0409 17.7691 96.7372 17.8835C95.4693 18.2695 94.3711 18.9294 93.4159 19.8272C92.2494 20.9041 91.3864 22.2109 90.6619 23.6147C90.5267 23.8816 90.3949 24.1682 90.2597 24.4351C90.2343 24.5206 90.1996 24.6685 90.2526 24.7401C90.3357 24.8672 90.4628 24.784 90.5736 24.7239C90.7826 24.6465 90.9882 24.5494 91.1937 24.4523C92.9917 23.6284 94.8576 23.0759 96.8008 22.7326C97.3504 22.6355 97.9172 22.6366 98.4401 22.848C98.9827 23.0559 99.4085 23.4059 99.6981 23.9015C100.104 24.5993 99.8463 25.4347 99.1223 25.8056C98.8093 25.9824 98.456 26.0449 98.112 26.0449C97.2438 26.0565 96.3941 25.9434 95.5444 25.8303C95.2951 25.7933 95.0457 25.7564 94.8033 25.7587Z" fill="white"/>
    <path d="M103.376 21.51C103.388 21.6903 103.621 21.7503 103.737 21.6082C103.88 21.3806 104.045 21.1691 104.21 20.9577C104.307 20.819 104.408 20.7 104.524 20.5579C105.098 19.9097 106.157 19.9454 106.668 20.6651C106.831 20.8997 106.915 21.148 106.983 21.4196C107.127 22.1232 107.11 22.8349 106.907 23.5189C106.751 24.0122 106.509 24.4802 106.199 24.8996C106.017 25.1342 105.813 25.3525 105.532 25.4831C105.177 25.6472 104.829 25.6276 104.506 25.4012C104.202 25.1713 104.104 24.8444 104.14 24.4735C104.17 24.1846 104.309 23.9374 104.471 23.7063C104.694 23.3631 104.94 23.0361 105.186 22.7091C105.364 22.4549 105.519 22.1846 105.585 21.8691C105.612 21.682 105.64 21.4948 105.625 21.2949C105.593 20.9968 105.369 20.8744 105.069 21.0084C104.772 21.1621 104.502 21.3516 104.308 21.6289C104.078 21.9328 103.875 22.2725 103.671 22.6122C103.545 22.8167 103.446 23.0571 103.343 23.2778C103.298 23.3667 103.233 23.4592 103.181 23.5088C103.113 23.5816 103.015 23.599 102.907 23.5574C102.821 23.532 102.765 23.4407 102.767 23.339C102.785 23.2143 102.804 23.0895 102.823 22.9647C102.945 22.3962 102.848 21.8463 102.732 21.2998C102.729 21.2802 102.706 21.264 102.706 21.264C102.642 21.1335 102.459 21.1254 102.397 21.2375C102.365 21.2837 102.352 21.3264 102.32 21.3727C102.015 22.0544 101.877 22.7672 101.989 23.5171C102.045 23.9526 102.157 24.3581 102.229 24.7706C102.284 24.9635 102.341 25.1761 102.356 25.376C102.368 25.5562 102.363 25.7596 102.292 25.9341C102.114 26.5326 101.441 26.7325 100.946 26.3339C100.761 26.2046 100.648 26.022 100.551 25.8164C100.358 25.4051 100.282 24.973 100.304 24.5235C100.385 23.7194 100.463 22.8956 100.649 22.1134C100.757 21.6894 100.887 21.2815 101.107 20.9187C101.249 20.6911 101.414 20.4796 101.583 20.2878C101.732 20.0995 101.957 19.999 102.185 19.9181C102.705 19.7655 103.13 19.9942 103.282 20.5141C103.343 20.7463 103.345 20.989 103.367 21.2281C103.381 21.3067 103.379 21.4084 103.376 21.51Z" fill="white"/>
    <path d="M109.143 19.843C109.019 19.8246 108.867 19.7703 108.813 19.9216C108.742 20.0961 108.884 20.2128 109.003 20.3133C109.172 20.4658 109.337 20.5986 109.502 20.7315C110.089 21.1947 110.677 21.658 111.264 22.1212C111.357 22.1859 111.452 22.2702 111.532 22.3777C111.737 22.6249 111.694 22.9565 111.433 23.0836C111.339 23.1206 111.221 23.1414 111.123 23.1587C110.374 23.2709 109.671 23.5367 109.089 24.0243C108.982 24.104 108.898 24.1999 108.783 24.2404C108.614 24.3109 108.447 24.401 108.287 24.4091C107.95 24.4484 107.644 24.3202 107.444 23.991C107.222 23.6455 107.218 23.2816 107.382 22.9488C107.485 22.7281 107.641 22.5791 107.824 22.4658C108.12 22.3122 108.447 22.2139 108.788 22.1942C109.03 22.1919 109.253 22.193 109.495 22.1907C109.636 22.1861 109.777 22.1814 110.02 22.1791C109.89 22.0197 109.31 21.5957 109.063 21.4571C108.855 21.3115 108.628 21.1694 108.42 21.0239C108.159 20.8067 107.927 20.5237 107.767 20.1875C107.57 19.7565 107.579 19.3498 107.799 18.987C107.892 18.8287 108.012 18.7063 108.152 18.5803C108.832 18.0753 109.6 17.8384 110.48 18.007C110.69 18.0509 110.907 18.1341 111.104 18.2207C111.282 18.3108 111.427 18.4471 111.56 18.6262C111.806 18.9878 111.826 19.4499 111.597 19.7538C111.435 19.9849 111.233 20.1016 110.955 20.1305C110.68 20.1791 110.371 20.1525 110.076 20.0832C109.757 19.9978 109.458 19.9088 109.143 19.843Z" fill="white"/>
    <path d="M10.2086 25.0791C10.1392 24.3791 9.84146 23.8353 9.31527 23.4477C8.78908 23.0601 8.07497 22.8663 7.17293 22.8663C6.56001 22.8663 6.04249 22.9531 5.62039 23.1266C5.19828 23.2944 4.87447 23.5287 4.64896 23.8295C4.42923 24.1303 4.31937 24.4717 4.31937 24.8535C4.30781 25.1717 4.3743 25.4494 4.51886 25.6865C4.6692 25.9237 4.87447 26.1291 5.13467 26.3027C5.39488 26.4704 5.69556 26.618 6.03671 26.7452C6.37787 26.8667 6.74215 26.9708 7.12956 27.0576L8.72548 27.4394C9.5003 27.613 10.2115 27.8444 10.8591 28.1337C11.5068 28.4229 12.0676 28.7787 12.5418 29.201C13.0159 29.6233 13.3831 30.1209 13.6433 30.6936C13.9093 31.2663 14.0452 31.9229 14.051 32.6634C14.0452 33.751 13.7676 34.694 13.2183 35.4924C12.6748 36.2849 11.8884 36.9011 10.8591 37.3407C9.83568 37.7746 8.60116 37.9916 7.15558 37.9916C5.72158 37.9916 4.4726 37.7717 3.40866 37.332C2.3505 36.8924 1.52363 36.2415 0.928058 35.3796C0.338264 34.5118 0.0289115 33.4386 0 32.1601H3.63417C3.67465 32.756 3.84522 33.2535 4.1459 33.6527C4.45236 34.0461 4.86001 34.344 5.36886 34.5465C5.88348 34.7432 6.4646 34.8415 7.11222 34.8415C7.74827 34.8415 8.30048 34.749 8.76884 34.5639C9.24299 34.3787 9.61017 34.1213 9.87037 33.7915C10.1306 33.4618 10.2607 33.0829 10.2607 32.6548C10.2607 32.2556 10.1421 31.92 9.90506 31.6481C9.67377 31.3762 9.33262 31.1448 8.8816 30.9539C8.43636 30.763 7.88993 30.5895 7.24232 30.4333L5.30814 29.9473C3.81053 29.5828 2.62805 29.013 1.76071 28.2378C0.893364 27.4626 0.462583 26.4184 0.468366 25.1051C0.462583 24.0291 0.748807 23.089 1.32704 22.2849C1.91105 21.4807 2.71189 20.8531 3.72958 20.4018C4.74726 19.9506 5.90372 19.725 7.19895 19.725C8.51731 19.725 9.66799 19.9506 10.651 20.4018C11.6398 20.8531 12.4088 21.4807 12.9581 22.2849C13.5074 23.089 13.7908 24.0204 13.8081 25.0791H10.2086Z" fill="#E87409"/>
    <path d="M15.8971 37.7399V24.4109H19.592V37.7399H15.8971ZM17.7532 22.6927C17.2039 22.6927 16.7326 22.5105 16.3395 22.146C15.952 21.7758 15.7583 21.3332 15.7583 20.8183C15.7583 20.3093 15.952 19.8725 16.3395 19.508C16.7326 19.1378 17.2039 18.9526 17.7532 18.9526C18.3025 18.9526 18.7709 19.1378 19.1583 19.508C19.5515 19.8725 19.7481 20.3093 19.7481 20.8183C19.7481 21.3332 19.5515 21.7758 19.1583 22.146C18.7709 22.5105 18.3025 22.6927 17.7532 22.6927Z" fill="#E87409"/>
    <path d="M21.9412 37.7399V24.4109H25.4626V26.7626H25.6187C25.8963 25.9816 26.3589 25.3655 27.0065 24.9142C27.6541 24.463 28.4289 24.2374 29.331 24.2374C30.2446 24.2374 31.0223 24.4659 31.6641 24.9229C32.3059 25.3741 32.7338 25.9874 32.9478 26.7626H33.0866C33.3583 25.9989 33.8498 25.3886 34.561 24.9316C35.278 24.4688 36.1251 24.2374 37.1024 24.2374C38.3455 24.2374 39.3546 24.6337 40.1294 25.4262C40.91 26.213 41.3003 27.3295 41.3003 28.7758V37.7399H37.6141V29.5047C37.6141 28.7642 37.4175 28.2089 37.0243 27.8386C36.6311 27.4684 36.1396 27.2832 35.5498 27.2832C34.8791 27.2832 34.3558 27.4973 33.9799 27.9254C33.6041 28.3477 33.4161 28.906 33.4161 29.6002V37.7399H29.834V29.4266C29.834 28.7729 29.6461 28.2523 29.2702 27.8647C28.9002 27.4771 28.4116 27.2832 27.8044 27.2832C27.3939 27.2832 27.0238 27.3874 26.6942 27.5956C26.3704 27.7981 26.1131 28.0845 25.9223 28.4547C25.7315 28.8192 25.6361 29.2473 25.6361 29.739V37.7399H21.9412Z" fill="#E87409"/>
    <path d="M50.7726 24.4109V27.1878H42.5501V24.4109H50.7726ZM44.4323 37.7399V23.4477C44.4323 22.4816 44.6202 21.6803 44.996 21.044C45.3777 20.4076 45.8981 19.9303 46.5573 19.6121C47.2164 19.294 47.9653 19.1349 48.8037 19.1349C49.3703 19.1349 49.8879 19.1783 50.3562 19.265C50.8304 19.3518 51.1831 19.4299 51.4144 19.4993L50.7552 22.2762C50.6106 22.2299 50.4314 22.1865 50.2175 22.146C50.0093 22.1055 49.7953 22.0853 49.5756 22.0853C49.0321 22.0853 48.6533 22.2126 48.4394 22.4671C48.2255 22.7159 48.1185 23.0659 48.1185 23.5171V37.7399H44.4323Z" fill="#E87409"/>
    <path d="M56.1141 19.9679V37.7399H52.4192V19.9679H56.1141Z" fill="#E87409"/>
    <path d="M64.4629 38.0002C63.0925 38.0002 61.9129 37.7225 60.9241 37.1672C59.9411 36.606 59.1836 35.8134 58.6517 34.7895C58.1197 33.7597 57.8537 32.5419 57.8537 31.1362C57.8537 29.7651 58.1197 28.5618 58.6517 27.5262C59.1836 26.4907 59.9324 25.6837 60.8981 25.1051C61.8695 24.5266 63.0086 24.2374 64.3154 24.2374C65.1943 24.2374 66.0125 24.3791 66.77 24.6626C67.5332 24.9403 68.1982 25.3597 68.7649 25.9208C69.3373 26.482 69.7826 27.1878 70.1006 28.0382C70.4186 28.8828 70.5776 29.8721 70.5776 31.006V32.0213H59.3282V29.7304H67.0996C67.0996 29.1981 66.9839 28.7266 66.7526 28.3159C66.5214 27.9052 66.2004 27.5841 65.7899 27.3527C65.3851 27.1155 64.9139 26.9969 64.3761 26.9969C63.8152 26.9969 63.318 27.127 62.8843 27.3874C62.4564 27.6419 62.121 27.9861 61.8782 28.42C61.6353 28.8481 61.511 29.3254 61.5052 29.8519V32.03C61.5052 32.6895 61.6266 33.2593 61.8695 33.7395C62.1181 34.2196 62.468 34.5899 62.919 34.8502C63.37 35.1106 63.9049 35.2407 64.5236 35.2407C64.9341 35.2407 65.31 35.1829 65.6511 35.0672C65.9923 34.9515 66.2843 34.7779 66.5271 34.5465C66.77 34.3151 66.955 34.0316 67.0822 33.6961L70.4996 33.9217C70.3261 34.7432 69.9705 35.4606 69.4327 36.0738C68.9008 36.6812 68.2127 37.1556 67.3685 37.4969C66.53 37.8325 65.5615 38.0002 64.4629 38.0002Z" fill="#E87409"/>
    <path d="M74.5809 24.4109L77.0268 29.0709L79.5335 24.4109H83.3237L79.4641 31.0754L83.4278 37.7399H79.6549L77.0268 33.132L74.4422 37.7399H70.6258L74.5809 31.0754L70.7646 24.4109H74.5809Z" fill="#E87409"/>
</svg>
